<mxfile host="Electron" agent="Mozilla/5.0 (Macintosh; Intel Mac OS X 10_15_7) AppleWebKit/537.36 (KHTML, like Gecko) draw.io/24.7.8 Chrome/128.0.6613.36 Electron/32.0.1 Safari/537.36" version="24.7.8">
  <diagram id="C5RBs43oDa-KdzZeNtuy" name="Page-1">
    <mxGraphModel dx="1122" dy="698" grid="1" gridSize="10" guides="1" tooltips="1" connect="1" arrows="1" fold="1" page="1" pageScale="1" pageWidth="827" pageHeight="1169" math="0" shadow="0">
      <root>
        <mxCell id="WIyWlLk6GJQsqaUBKTNV-0" />
        <mxCell id="WIyWlLk6GJQsqaUBKTNV-1" parent="WIyWlLk6GJQsqaUBKTNV-0" />
        <mxCell id="WIyWlLk6GJQsqaUBKTNV-2" value="Si" style="rounded=0;html=1;jettySize=auto;orthogonalLoop=1;fontSize=11;endArrow=block;endFill=0;endSize=8;strokeWidth=1;shadow=0;labelBackgroundColor=none;edgeStyle=orthogonalEdgeStyle;" parent="WIyWlLk6GJQsqaUBKTNV-1" edge="1">
          <mxGeometry x="0.0057" relative="1" as="geometry">
            <mxPoint x="379.96000000000004" y="190" as="sourcePoint" />
            <mxPoint x="449.96" y="190" as="targetPoint" />
            <mxPoint as="offset" />
          </mxGeometry>
        </mxCell>
        <mxCell id="K89lKKA3gyO2oekOYoo0-77" value="No" style="edgeStyle=orthogonalEdgeStyle;rounded=0;orthogonalLoop=1;jettySize=auto;html=1;exitX=1;exitY=0;exitDx=0;exitDy=0;entryX=1;entryY=0.5;entryDx=0;entryDy=0;endSize=8;endArrow=block;endFill=0;" edge="1" parent="WIyWlLk6GJQsqaUBKTNV-1" source="WIyWlLk6GJQsqaUBKTNV-6" target="K89lKKA3gyO2oekOYoo0-72">
          <mxGeometry relative="1" as="geometry">
            <Array as="points">
              <mxPoint x="580" y="170" />
              <mxPoint x="580" y="90" />
            </Array>
          </mxGeometry>
        </mxCell>
        <mxCell id="WIyWlLk6GJQsqaUBKTNV-6" value="&lt;font style=&quot;font-size: 12px;&quot;&gt;¿Legajo válido?&lt;/font&gt;" style="rhombus;whiteSpace=wrap;html=1;shadow=0;fontFamily=Helvetica;fontSize=12;align=center;strokeWidth=1;spacing=6;spacingTop=-4;fillColor=#647687;strokeColor=#314354;fontColor=#ffffff;" parent="WIyWlLk6GJQsqaUBKTNV-1" vertex="1">
          <mxGeometry x="449.96" y="150" width="100" height="80" as="geometry" />
        </mxCell>
        <mxCell id="K89lKKA3gyO2oekOYoo0-0" value="Carga operaciones" style="ellipse;whiteSpace=wrap;html=1;aspect=fixed;fillColor=#60a917;fontColor=#ffffff;strokeColor=#2D7600;" vertex="1" parent="WIyWlLk6GJQsqaUBKTNV-1">
          <mxGeometry x="479.96" width="40" height="40" as="geometry" />
        </mxCell>
        <mxCell id="K89lKKA3gyO2oekOYoo0-2" value="Informe general" style="ellipse;whiteSpace=wrap;html=1;aspect=fixed;fillColor=#a20025;fontColor=#ffffff;strokeColor=#6F0000;" vertex="1" parent="WIyWlLk6GJQsqaUBKTNV-1">
          <mxGeometry x="479.96" y="685" width="40" height="40" as="geometry" />
        </mxCell>
        <mxCell id="K89lKKA3gyO2oekOYoo0-10" value="" style="rounded=0;html=1;jettySize=auto;orthogonalLoop=1;fontSize=11;endArrow=block;endFill=0;endSize=8;strokeWidth=1;shadow=0;labelBackgroundColor=none;edgeStyle=orthogonalEdgeStyle;exitX=0.5;exitY=1;exitDx=0;exitDy=0;entryX=0.5;entryY=0;entryDx=0;entryDy=0;" edge="1" parent="WIyWlLk6GJQsqaUBKTNV-1" source="K89lKKA3gyO2oekOYoo0-0" target="K89lKKA3gyO2oekOYoo0-72">
          <mxGeometry relative="1" as="geometry">
            <mxPoint x="424" y="320" as="sourcePoint" />
            <mxPoint x="424" y="360" as="targetPoint" />
          </mxGeometry>
        </mxCell>
        <mxCell id="K89lKKA3gyO2oekOYoo0-52" value="Si" style="edgeStyle=orthogonalEdgeStyle;rounded=0;orthogonalLoop=1;jettySize=auto;html=1;exitX=1;exitY=0.5;exitDx=0;exitDy=0;entryX=1;entryY=0.5;entryDx=0;entryDy=0;endSize=8;endArrow=block;endFill=0;" edge="1" parent="WIyWlLk6GJQsqaUBKTNV-1" target="K89lKKA3gyO2oekOYoo0-47">
          <mxGeometry relative="1" as="geometry">
            <mxPoint x="729.96" y="190" as="sourcePoint" />
          </mxGeometry>
        </mxCell>
        <mxCell id="K89lKKA3gyO2oekOYoo0-31" value="&lt;font style=&quot;font-size: 12px;&quot;&gt;¿Legajo ya ingresado?&lt;/font&gt;" style="rhombus;whiteSpace=wrap;html=1;shadow=0;fontFamily=Helvetica;fontSize=12;align=center;strokeWidth=1;spacing=6;spacingTop=-4;fillColor=#647687;strokeColor=#314354;fontColor=#ffffff;" vertex="1" parent="WIyWlLk6GJQsqaUBKTNV-1">
          <mxGeometry x="629.96" y="150" width="100" height="80" as="geometry" />
        </mxCell>
        <mxCell id="K89lKKA3gyO2oekOYoo0-33" value="Si" style="rounded=0;html=1;jettySize=auto;orthogonalLoop=1;fontSize=11;endArrow=block;endFill=0;endSize=8;strokeWidth=1;shadow=0;labelBackgroundColor=none;edgeStyle=orthogonalEdgeStyle;exitX=1;exitY=0.5;exitDx=0;exitDy=0;entryX=0;entryY=0.5;entryDx=0;entryDy=0;" edge="1" parent="WIyWlLk6GJQsqaUBKTNV-1">
          <mxGeometry relative="1" as="geometry">
            <mxPoint x="549.96" y="190" as="sourcePoint" />
            <mxPoint x="629.96" y="190" as="targetPoint" />
          </mxGeometry>
        </mxCell>
        <mxCell id="K89lKKA3gyO2oekOYoo0-34" value="I&lt;span style=&quot;background-color: initial;&quot;&gt;ngreso de nombre&lt;/span&gt;" style="rounded=1;whiteSpace=wrap;html=1;fontSize=12;glass=0;strokeWidth=1;shadow=0;fillColor=#647687;strokeColor=#314354;fontColor=#ffffff;" vertex="1" parent="WIyWlLk6GJQsqaUBKTNV-1">
          <mxGeometry x="589.96" y="260" width="120" height="40" as="geometry" />
        </mxCell>
        <mxCell id="K89lKKA3gyO2oekOYoo0-35" value="No" style="rounded=0;html=1;jettySize=auto;orthogonalLoop=1;fontSize=11;endArrow=block;endFill=0;endSize=8;strokeWidth=1;shadow=0;labelBackgroundColor=none;edgeStyle=orthogonalEdgeStyle;exitX=0.5;exitY=1;exitDx=0;exitDy=0;entryX=0.75;entryY=0;entryDx=0;entryDy=0;" edge="1" parent="WIyWlLk6GJQsqaUBKTNV-1" target="K89lKKA3gyO2oekOYoo0-34">
          <mxGeometry relative="1" as="geometry">
            <mxPoint x="679.96" y="230" as="sourcePoint" />
            <mxPoint x="254.91" y="260" as="targetPoint" />
            <Array as="points">
              <mxPoint x="679.96" y="250" />
              <mxPoint x="679.96" y="250" />
            </Array>
          </mxGeometry>
        </mxCell>
        <mxCell id="K89lKKA3gyO2oekOYoo0-36" value="&lt;font style=&quot;font-size: 12px;&quot;&gt;¿Nombre válido?&lt;/font&gt;" style="rhombus;whiteSpace=wrap;html=1;shadow=0;fontFamily=Helvetica;fontSize=12;align=center;strokeWidth=1;spacing=6;spacingTop=-4;fillColor=#647687;strokeColor=#314354;fontColor=#ffffff;" vertex="1" parent="WIyWlLk6GJQsqaUBKTNV-1">
          <mxGeometry x="439.96" y="280" width="100" height="80" as="geometry" />
        </mxCell>
        <mxCell id="K89lKKA3gyO2oekOYoo0-37" value="" style="rounded=0;html=1;jettySize=auto;orthogonalLoop=1;fontSize=11;endArrow=block;endFill=0;endSize=8;strokeWidth=1;shadow=0;labelBackgroundColor=none;edgeStyle=orthogonalEdgeStyle;exitX=0;exitY=0;exitDx=0;exitDy=0;entryX=0.5;entryY=0;entryDx=0;entryDy=0;" edge="1" parent="WIyWlLk6GJQsqaUBKTNV-1" source="K89lKKA3gyO2oekOYoo0-34" target="K89lKKA3gyO2oekOYoo0-36">
          <mxGeometry x="0.0105" relative="1" as="geometry">
            <mxPoint x="459.96" y="320" as="sourcePoint" />
            <mxPoint x="349.96" y="320" as="targetPoint" />
            <Array as="points">
              <mxPoint x="489.96" y="260" />
            </Array>
            <mxPoint as="offset" />
          </mxGeometry>
        </mxCell>
        <mxCell id="K89lKKA3gyO2oekOYoo0-38" value="No" style="rounded=0;html=1;jettySize=auto;orthogonalLoop=1;fontSize=11;endArrow=block;endFill=0;endSize=8;strokeWidth=1;shadow=0;labelBackgroundColor=none;edgeStyle=orthogonalEdgeStyle;exitX=1;exitY=0.5;exitDx=0;exitDy=0;entryX=0.5;entryY=1;entryDx=0;entryDy=0;" edge="1" parent="WIyWlLk6GJQsqaUBKTNV-1" source="K89lKKA3gyO2oekOYoo0-36" target="K89lKKA3gyO2oekOYoo0-34">
          <mxGeometry x="0.0105" relative="1" as="geometry">
            <mxPoint x="289.96" y="340" as="sourcePoint" />
            <mxPoint x="289.96" y="390" as="targetPoint" />
            <Array as="points" />
            <mxPoint as="offset" />
          </mxGeometry>
        </mxCell>
        <mxCell id="K89lKKA3gyO2oekOYoo0-43" style="edgeStyle=orthogonalEdgeStyle;rounded=0;orthogonalLoop=1;jettySize=auto;html=1;exitX=0.5;exitY=1;exitDx=0;exitDy=0;entryX=0.5;entryY=0;entryDx=0;entryDy=0;endArrow=block;endFill=0;endSize=8;" edge="1" parent="WIyWlLk6GJQsqaUBKTNV-1" source="K89lKKA3gyO2oekOYoo0-39" target="K89lKKA3gyO2oekOYoo0-42">
          <mxGeometry relative="1" as="geometry" />
        </mxCell>
        <mxCell id="K89lKKA3gyO2oekOYoo0-39" value="I&lt;span style=&quot;background-color: initial;&quot;&gt;ngreso de apellido&lt;/span&gt;" style="rounded=1;whiteSpace=wrap;html=1;fontSize=12;glass=0;strokeWidth=1;shadow=0;fillColor=#647687;strokeColor=#314354;fontColor=#ffffff;" vertex="1" parent="WIyWlLk6GJQsqaUBKTNV-1">
          <mxGeometry x="259.96" y="290" width="120" height="40" as="geometry" />
        </mxCell>
        <mxCell id="K89lKKA3gyO2oekOYoo0-41" value="Si" style="rounded=0;html=1;jettySize=auto;orthogonalLoop=1;fontSize=11;endArrow=block;endFill=0;endSize=8;strokeWidth=1;shadow=0;labelBackgroundColor=none;edgeStyle=orthogonalEdgeStyle;exitX=0;exitY=0;exitDx=0;exitDy=0;entryX=1;entryY=0.25;entryDx=0;entryDy=0;" edge="1" parent="WIyWlLk6GJQsqaUBKTNV-1" source="K89lKKA3gyO2oekOYoo0-36" target="K89lKKA3gyO2oekOYoo0-39">
          <mxGeometry x="0.0105" relative="1" as="geometry">
            <mxPoint x="289.96" y="340" as="sourcePoint" />
            <mxPoint x="289.96" y="390" as="targetPoint" />
            <Array as="points">
              <mxPoint x="419.96" y="300" />
              <mxPoint x="419.96" y="300" />
            </Array>
            <mxPoint as="offset" />
          </mxGeometry>
        </mxCell>
        <mxCell id="K89lKKA3gyO2oekOYoo0-44" value="No" style="edgeStyle=orthogonalEdgeStyle;rounded=0;orthogonalLoop=1;jettySize=auto;html=1;exitX=0;exitY=0.5;exitDx=0;exitDy=0;entryX=0;entryY=0.5;entryDx=0;entryDy=0;endArrow=block;endFill=0;endSize=8;" edge="1" parent="WIyWlLk6GJQsqaUBKTNV-1" source="K89lKKA3gyO2oekOYoo0-42" target="K89lKKA3gyO2oekOYoo0-39">
          <mxGeometry relative="1" as="geometry">
            <Array as="points">
              <mxPoint x="239.96" y="400" />
              <mxPoint x="239.96" y="310" />
            </Array>
          </mxGeometry>
        </mxCell>
        <mxCell id="K89lKKA3gyO2oekOYoo0-46" value="Si" style="edgeStyle=orthogonalEdgeStyle;rounded=0;orthogonalLoop=1;jettySize=auto;html=1;exitX=1;exitY=0.5;exitDx=0;exitDy=0;endArrow=block;endFill=0;endSize=8;" edge="1" parent="WIyWlLk6GJQsqaUBKTNV-1" source="K89lKKA3gyO2oekOYoo0-42" target="K89lKKA3gyO2oekOYoo0-45">
          <mxGeometry relative="1" as="geometry" />
        </mxCell>
        <mxCell id="K89lKKA3gyO2oekOYoo0-42" value="&lt;font style=&quot;font-size: 12px;&quot;&gt;¿Apellido válido?&lt;/font&gt;" style="rhombus;whiteSpace=wrap;html=1;shadow=0;fontFamily=Helvetica;fontSize=12;align=center;strokeWidth=1;spacing=6;spacingTop=-4;fillColor=#647687;strokeColor=#314354;fontColor=#ffffff;" vertex="1" parent="WIyWlLk6GJQsqaUBKTNV-1">
          <mxGeometry x="269.96" y="360" width="100" height="80" as="geometry" />
        </mxCell>
        <mxCell id="K89lKKA3gyO2oekOYoo0-49" style="edgeStyle=orthogonalEdgeStyle;rounded=0;orthogonalLoop=1;jettySize=auto;html=1;exitX=1;exitY=0.5;exitDx=0;exitDy=0;endSize=8;endArrow=block;endFill=0;" edge="1" parent="WIyWlLk6GJQsqaUBKTNV-1" source="K89lKKA3gyO2oekOYoo0-45" target="K89lKKA3gyO2oekOYoo0-48">
          <mxGeometry relative="1" as="geometry" />
        </mxCell>
        <mxCell id="K89lKKA3gyO2oekOYoo0-45" value="I&lt;span style=&quot;background-color: initial;&quot;&gt;ngreso de mail&lt;/span&gt;" style="rounded=1;whiteSpace=wrap;html=1;fontSize=12;glass=0;strokeWidth=1;shadow=0;fillColor=#647687;strokeColor=#314354;fontColor=#ffffff;" vertex="1" parent="WIyWlLk6GJQsqaUBKTNV-1">
          <mxGeometry x="429.96" y="380" width="120" height="40" as="geometry" />
        </mxCell>
        <mxCell id="K89lKKA3gyO2oekOYoo0-54" style="edgeStyle=orthogonalEdgeStyle;rounded=0;orthogonalLoop=1;jettySize=auto;html=1;exitX=0;exitY=0.5;exitDx=0;exitDy=0;entryX=1;entryY=0.5;entryDx=0;entryDy=0;endSize=8;endArrow=block;endFill=0;" edge="1" parent="WIyWlLk6GJQsqaUBKTNV-1" source="K89lKKA3gyO2oekOYoo0-47" target="K89lKKA3gyO2oekOYoo0-53">
          <mxGeometry relative="1" as="geometry" />
        </mxCell>
        <mxCell id="K89lKKA3gyO2oekOYoo0-47" value="Ingreso de operacion" style="rounded=1;whiteSpace=wrap;html=1;fontSize=12;glass=0;strokeWidth=1;shadow=0;fillColor=#647687;strokeColor=#314354;fontColor=#ffffff;" vertex="1" parent="WIyWlLk6GJQsqaUBKTNV-1">
          <mxGeometry x="619.96" y="480" width="120" height="40" as="geometry" />
        </mxCell>
        <mxCell id="K89lKKA3gyO2oekOYoo0-50" value="No" style="edgeStyle=orthogonalEdgeStyle;rounded=0;orthogonalLoop=1;jettySize=auto;html=1;exitX=0;exitY=1;exitDx=0;exitDy=0;entryX=0.75;entryY=1;entryDx=0;entryDy=0;endSize=8;endArrow=block;endFill=0;" edge="1" parent="WIyWlLk6GJQsqaUBKTNV-1" source="K89lKKA3gyO2oekOYoo0-48" target="K89lKKA3gyO2oekOYoo0-45">
          <mxGeometry relative="1" as="geometry">
            <Array as="points">
              <mxPoint x="654.96" y="440" />
              <mxPoint x="519.96" y="440" />
            </Array>
          </mxGeometry>
        </mxCell>
        <mxCell id="K89lKKA3gyO2oekOYoo0-51" value="Si" style="edgeStyle=orthogonalEdgeStyle;rounded=0;orthogonalLoop=1;jettySize=auto;html=1;exitX=0.5;exitY=1;exitDx=0;exitDy=0;entryX=0.5;entryY=0;entryDx=0;entryDy=0;endSize=8;endArrow=block;endFill=0;" edge="1" parent="WIyWlLk6GJQsqaUBKTNV-1" source="K89lKKA3gyO2oekOYoo0-48" target="K89lKKA3gyO2oekOYoo0-47">
          <mxGeometry relative="1" as="geometry" />
        </mxCell>
        <mxCell id="K89lKKA3gyO2oekOYoo0-48" value="&lt;font style=&quot;font-size: 12px;&quot;&gt;¿Mail válido?&lt;/font&gt;" style="rhombus;whiteSpace=wrap;html=1;shadow=0;fontFamily=Helvetica;fontSize=12;align=center;strokeWidth=1;spacing=6;spacingTop=-4;fillColor=#647687;strokeColor=#314354;fontColor=#ffffff;" vertex="1" parent="WIyWlLk6GJQsqaUBKTNV-1">
          <mxGeometry x="629.96" y="360" width="100" height="80" as="geometry" />
        </mxCell>
        <mxCell id="K89lKKA3gyO2oekOYoo0-55" value="No" style="edgeStyle=orthogonalEdgeStyle;rounded=0;orthogonalLoop=1;jettySize=auto;html=1;exitX=1;exitY=1;exitDx=0;exitDy=0;entryX=0.25;entryY=1;entryDx=0;entryDy=0;endSize=8;endArrow=block;endFill=0;" edge="1" parent="WIyWlLk6GJQsqaUBKTNV-1" source="K89lKKA3gyO2oekOYoo0-53" target="K89lKKA3gyO2oekOYoo0-47">
          <mxGeometry relative="1" as="geometry">
            <Array as="points">
              <mxPoint x="514.96" y="540" />
              <mxPoint x="649.96" y="540" />
            </Array>
          </mxGeometry>
        </mxCell>
        <mxCell id="K89lKKA3gyO2oekOYoo0-57" value="Si" style="edgeStyle=orthogonalEdgeStyle;rounded=0;orthogonalLoop=1;jettySize=auto;html=1;exitX=0;exitY=0.5;exitDx=0;exitDy=0;entryX=1;entryY=0.5;entryDx=0;entryDy=0;strokeWidth=1;endSize=8;endArrow=block;endFill=0;" edge="1" parent="WIyWlLk6GJQsqaUBKTNV-1" source="K89lKKA3gyO2oekOYoo0-53" target="K89lKKA3gyO2oekOYoo0-56">
          <mxGeometry relative="1" as="geometry" />
        </mxCell>
        <mxCell id="K89lKKA3gyO2oekOYoo0-53" value="&lt;font style=&quot;font-size: 12px;&quot;&gt;¿Operación válida?&lt;/font&gt;" style="rhombus;whiteSpace=wrap;html=1;shadow=0;fontFamily=Helvetica;fontSize=12;align=center;strokeWidth=1;spacing=6;spacingTop=-4;fillColor=#647687;strokeColor=#314354;fontColor=#ffffff;" vertex="1" parent="WIyWlLk6GJQsqaUBKTNV-1">
          <mxGeometry x="439.96" y="460" width="100" height="80" as="geometry" />
        </mxCell>
        <mxCell id="K89lKKA3gyO2oekOYoo0-59" style="edgeStyle=orthogonalEdgeStyle;rounded=0;orthogonalLoop=1;jettySize=auto;html=1;exitX=0.5;exitY=1;exitDx=0;exitDy=0;entryX=0.5;entryY=0;entryDx=0;entryDy=0;endSize=8;endArrow=block;endFill=0;" edge="1" parent="WIyWlLk6GJQsqaUBKTNV-1" source="K89lKKA3gyO2oekOYoo0-56" target="K89lKKA3gyO2oekOYoo0-60">
          <mxGeometry relative="1" as="geometry">
            <mxPoint x="320.16" y="560" as="targetPoint" />
          </mxGeometry>
        </mxCell>
        <mxCell id="K89lKKA3gyO2oekOYoo0-56" value="Informe puesto" style="rounded=1;whiteSpace=wrap;html=1;fontSize=12;glass=0;strokeWidth=1;shadow=0;fillColor=#647687;strokeColor=#314354;fontColor=#ffffff;" vertex="1" parent="WIyWlLk6GJQsqaUBKTNV-1">
          <mxGeometry x="259.96" y="480" width="120" height="40" as="geometry" />
        </mxCell>
        <mxCell id="K89lKKA3gyO2oekOYoo0-62" style="edgeStyle=orthogonalEdgeStyle;rounded=0;orthogonalLoop=1;jettySize=auto;html=1;exitX=1;exitY=0.5;exitDx=0;exitDy=0;entryX=0;entryY=0.5;entryDx=0;entryDy=0;endSize=8;endArrow=block;endFill=0;" edge="1" parent="WIyWlLk6GJQsqaUBKTNV-1" source="K89lKKA3gyO2oekOYoo0-60" target="K89lKKA3gyO2oekOYoo0-61">
          <mxGeometry relative="1" as="geometry" />
        </mxCell>
        <mxCell id="K89lKKA3gyO2oekOYoo0-60" value="Ingreso de conformidad" style="rounded=1;whiteSpace=wrap;html=1;fontSize=12;glass=0;strokeWidth=1;shadow=0;fillColor=#647687;strokeColor=#314354;fontColor=#ffffff;" vertex="1" parent="WIyWlLk6GJQsqaUBKTNV-1">
          <mxGeometry x="259.96" y="580" width="120" height="40" as="geometry" />
        </mxCell>
        <mxCell id="K89lKKA3gyO2oekOYoo0-63" value="No" style="edgeStyle=orthogonalEdgeStyle;rounded=0;orthogonalLoop=1;jettySize=auto;html=1;exitX=0;exitY=1;exitDx=0;exitDy=0;entryX=0.5;entryY=1;entryDx=0;entryDy=0;endSize=8;endArrow=block;endFill=0;" edge="1" parent="WIyWlLk6GJQsqaUBKTNV-1" source="K89lKKA3gyO2oekOYoo0-61" target="K89lKKA3gyO2oekOYoo0-60">
          <mxGeometry relative="1" as="geometry">
            <Array as="points">
              <mxPoint x="464.96" y="640" />
              <mxPoint x="319.96" y="640" />
            </Array>
          </mxGeometry>
        </mxCell>
        <mxCell id="K89lKKA3gyO2oekOYoo0-65" value="Si" style="edgeStyle=orthogonalEdgeStyle;rounded=0;orthogonalLoop=1;jettySize=auto;html=1;exitX=1;exitY=0.5;exitDx=0;exitDy=0;entryX=0;entryY=0.5;entryDx=0;entryDy=0;endSize=8;endArrow=block;endFill=0;" edge="1" parent="WIyWlLk6GJQsqaUBKTNV-1" source="K89lKKA3gyO2oekOYoo0-61" target="K89lKKA3gyO2oekOYoo0-64">
          <mxGeometry relative="1" as="geometry" />
        </mxCell>
        <mxCell id="K89lKKA3gyO2oekOYoo0-61" value="&lt;font style=&quot;font-size: 12px;&quot;&gt;¿Conformidad válida?&lt;/font&gt;" style="rhombus;whiteSpace=wrap;html=1;shadow=0;fontFamily=Helvetica;fontSize=12;align=center;strokeWidth=1;spacing=6;spacingTop=-4;fillColor=#647687;strokeColor=#314354;fontColor=#ffffff;" vertex="1" parent="WIyWlLk6GJQsqaUBKTNV-1">
          <mxGeometry x="439.96" y="560" width="100" height="80" as="geometry" />
        </mxCell>
        <mxCell id="K89lKKA3gyO2oekOYoo0-68" style="edgeStyle=orthogonalEdgeStyle;rounded=0;orthogonalLoop=1;jettySize=auto;html=1;exitX=0.5;exitY=1;exitDx=0;exitDy=0;entryX=0.5;entryY=0;entryDx=0;entryDy=0;endSize=8;endArrow=block;endFill=0;" edge="1" parent="WIyWlLk6GJQsqaUBKTNV-1" source="K89lKKA3gyO2oekOYoo0-64" target="K89lKKA3gyO2oekOYoo0-67">
          <mxGeometry relative="1" as="geometry" />
        </mxCell>
        <mxCell id="K89lKKA3gyO2oekOYoo0-64" value="Ingreso de estado" style="rounded=1;whiteSpace=wrap;html=1;fontSize=12;glass=0;strokeWidth=1;shadow=0;fillColor=#647687;strokeColor=#314354;fontColor=#ffffff;" vertex="1" parent="WIyWlLk6GJQsqaUBKTNV-1">
          <mxGeometry x="619.96" y="580" width="120" height="40" as="geometry" />
        </mxCell>
        <mxCell id="K89lKKA3gyO2oekOYoo0-69" value="No" style="edgeStyle=orthogonalEdgeStyle;rounded=0;orthogonalLoop=1;jettySize=auto;html=1;exitX=1;exitY=0.5;exitDx=0;exitDy=0;entryX=1;entryY=0.5;entryDx=0;entryDy=0;endSize=8;endArrow=block;endFill=0;" edge="1" parent="WIyWlLk6GJQsqaUBKTNV-1" source="K89lKKA3gyO2oekOYoo0-67" target="K89lKKA3gyO2oekOYoo0-64">
          <mxGeometry relative="1" as="geometry">
            <Array as="points">
              <mxPoint x="759.96" y="705" />
              <mxPoint x="759.96" y="600" />
            </Array>
          </mxGeometry>
        </mxCell>
        <mxCell id="K89lKKA3gyO2oekOYoo0-78" value="Si" style="edgeStyle=orthogonalEdgeStyle;rounded=0;orthogonalLoop=1;jettySize=auto;html=1;exitX=1;exitY=1;exitDx=0;exitDy=0;entryX=1;entryY=0;entryDx=0;entryDy=0;endArrow=block;endFill=0;endSize=8;" edge="1" parent="WIyWlLk6GJQsqaUBKTNV-1" source="K89lKKA3gyO2oekOYoo0-67" target="K89lKKA3gyO2oekOYoo0-72">
          <mxGeometry relative="1" as="geometry">
            <mxPoint x="800" y="70" as="targetPoint" />
            <Array as="points">
              <mxPoint x="780" y="725" />
              <mxPoint x="780" y="70" />
            </Array>
          </mxGeometry>
        </mxCell>
        <mxCell id="K89lKKA3gyO2oekOYoo0-67" value="¿Estado válido?" style="rhombus;whiteSpace=wrap;html=1;shadow=0;fontFamily=Helvetica;fontSize=12;align=center;strokeWidth=1;spacing=6;spacingTop=-4;fillColor=#647687;strokeColor=#314354;fontColor=#ffffff;" vertex="1" parent="WIyWlLk6GJQsqaUBKTNV-1">
          <mxGeometry x="629.96" y="665" width="100" height="80" as="geometry" />
        </mxCell>
        <mxCell id="K89lKKA3gyO2oekOYoo0-76" style="edgeStyle=orthogonalEdgeStyle;rounded=0;orthogonalLoop=1;jettySize=auto;html=1;exitX=0.5;exitY=1;exitDx=0;exitDy=0;entryX=0.5;entryY=0;entryDx=0;entryDy=0;endArrow=block;endFill=0;endSize=8;" edge="1" parent="WIyWlLk6GJQsqaUBKTNV-1" source="K89lKKA3gyO2oekOYoo0-72" target="WIyWlLk6GJQsqaUBKTNV-6">
          <mxGeometry relative="1" as="geometry" />
        </mxCell>
        <mxCell id="K89lKKA3gyO2oekOYoo0-72" value="I&lt;span style=&quot;background-color: initial;&quot;&gt;ngreso de legajo&lt;/span&gt;" style="rounded=1;whiteSpace=wrap;html=1;fontSize=12;glass=0;strokeWidth=1;shadow=0;fillColor=#647687;strokeColor=#314354;fontColor=#ffffff;" vertex="1" parent="WIyWlLk6GJQsqaUBKTNV-1">
          <mxGeometry x="439.96" y="70" width="120" height="40" as="geometry" />
        </mxCell>
        <mxCell id="K89lKKA3gyO2oekOYoo0-73" value="&lt;font style=&quot;font-size: 12px;&quot;&gt;¿Legajo distinto de 12000?&lt;/font&gt;" style="rhombus;whiteSpace=wrap;html=1;shadow=0;fontFamily=Helvetica;fontSize=12;align=center;strokeWidth=1;spacing=6;spacingTop=-4;fillColor=#647687;strokeColor=#314354;fontColor=#ffffff;" vertex="1" parent="WIyWlLk6GJQsqaUBKTNV-1">
          <mxGeometry x="279.96" y="150" width="100" height="80" as="geometry" />
        </mxCell>
        <mxCell id="K89lKKA3gyO2oekOYoo0-75" value="No" style="rounded=0;html=1;jettySize=auto;orthogonalLoop=1;fontSize=11;endArrow=block;endFill=0;endSize=8;strokeWidth=1;shadow=0;labelBackgroundColor=none;edgeStyle=orthogonalEdgeStyle;exitX=0;exitY=0.5;exitDx=0;exitDy=0;entryX=0;entryY=0.5;entryDx=0;entryDy=0;" edge="1" parent="WIyWlLk6GJQsqaUBKTNV-1" source="K89lKKA3gyO2oekOYoo0-73" target="K89lKKA3gyO2oekOYoo0-2">
          <mxGeometry x="0.0057" relative="1" as="geometry">
            <mxPoint x="160.00000000000003" y="220" as="sourcePoint" />
            <mxPoint x="229.99999999999997" y="220" as="targetPoint" />
            <Array as="points">
              <mxPoint x="220" y="190" />
              <mxPoint x="220" y="705" />
            </Array>
            <mxPoint as="offset" />
          </mxGeometry>
        </mxCell>
      </root>
    </mxGraphModel>
  </diagram>
</mxfile>
